<?xml version="1.0" encoding="iso-8859-1"?>
<!-- Generator: Adobe Illustrator 19.0.0, SVG Export Plug-In . SVG Version: 6.00 Build 0)  -->
<svg version="1.1" id="Capa_1" xmlns="http://www.w3.org/2000/svg" xmlns:xlink="http://www.w3.org/1999/xlink" x="0px" y="0px"
	 viewBox="0 0 512 512" style="enable-background:new 0 0 512 512;" xml:space="preserve">
<path style="fill:#B08763;" d="M477.667,243.194v52.346c0,34.016-27.675,61.691-61.691,61.691H182.131
	c-11.559,0-22.387-3.195-31.642-8.754v34.056c0,16.036,13.051,29.088,29.088,29.088h224.779c8.294,0,15.025,6.721,15.025,15.025
	c0,8.294-6.731,15.025-15.025,15.025H179.577c-32.604,0-59.137-26.534-59.137-59.137V65.201c0-4.297-2.704-8.213-6.721-9.736
	L44.044,29.082C36.282,26.137,32.375,17.473,35.31,9.71c2.945-7.763,11.619-11.669,19.372-8.734l69.674,26.393
	c15.636,5.91,26.133,21.125,26.133,37.832V295.54c0,17.449,14.193,31.642,31.642,31.642h233.844
	c17.449,0,31.642-14.193,31.642-31.642v-52.346c0-8.294,6.731-15.025,15.025-15.025C470.945,228.169,477.667,234.9,477.667,243.194z
	"/>
<g>
	<path style="fill:#8A6645;" d="M477.667,243.194v52.346c0,34.016-27.675,61.691-61.691,61.691H307.918v-30.049h108.058
		c17.449,0,31.642-14.193,31.642-31.642v-52.346c0-8.294,6.731-15.025,15.025-15.025C470.945,228.169,477.667,234.9,477.667,243.194
		z"/>
	<path style="fill:#8A6645;" d="M419.381,426.645c0,8.294-6.731,15.025-15.025,15.025h-96.438v-30.049h96.438
		C412.65,411.621,419.381,418.342,419.381,426.645z"/>
</g>
<path style="fill:#6C5D58;" d="M223.608,411.618c-27.675,0-50.191,22.516-50.191,50.191S195.933,512,223.608,512
	s50.191-22.516,50.191-50.191S251.285,411.618,223.608,411.618z"/>
<path style="fill:#504541;" d="M405.206,411.618c-27.675,0-50.191,22.516-50.191,50.191S377.53,512,405.206,512
	c27.675,0,50.191-22.516,50.191-50.191S432.882,411.618,405.206,411.618z"/>
<path style="fill:#FF7C48;" d="M374.729,207.841c5.87,5.86,5.87,15.375,0,21.245c-2.935,2.935-6.771,4.397-10.617,4.397
	s-7.693-1.462-10.627-4.397l-45.565-45.565l-45.565,45.565c-2.935,2.935-6.781,4.397-10.627,4.397s-7.693-1.462-10.627-4.397
	c-5.86-5.87-5.86-15.385,0-21.245l45.575-45.575L241.1,116.701c-5.86-5.86-5.86-15.375,0-21.245c5.87-5.87,15.385-5.87,21.255,0
	l45.565,45.565l45.565-45.565c5.87-5.87,15.385-5.87,21.245,0c5.87,5.87,5.87,15.385,0,21.245l-45.565,45.565L374.729,207.841z"/>
<path style="fill:#FF4C04;" d="M374.729,207.841c5.87,5.86,5.87,15.375,0,21.245c-2.935,2.935-6.771,4.397-10.617,4.397
	s-7.693-1.462-10.627-4.397l-45.565-45.565v-42.5l45.565-45.565c5.87-5.87,15.385-5.87,21.245,0c5.87,5.87,5.87,15.385,0,21.245
	l-45.565,45.565L374.729,207.841z"/>
<g>
</g>
<g>
</g>
<g>
</g>
<g>
</g>
<g>
</g>
<g>
</g>
<g>
</g>
<g>
</g>
<g>
</g>
<g>
</g>
<g>
</g>
<g>
</g>
<g>
</g>
<g>
</g>
<g>
</g>
</svg>
