<?xml version="1.0" encoding="iso-8859-1"?>
<!-- Generator: Adobe Illustrator 19.0.0, SVG Export Plug-In . SVG Version: 6.00 Build 0)  -->
<svg version="1.1" id="Capa_1" xmlns="http://www.w3.org/2000/svg" xmlns:xlink="http://www.w3.org/1999/xlink" x="0px" y="0px"
	 viewBox="0 0 512 512" style="enable-background:new 0 0 512 512;" xml:space="preserve">
<path style="fill:#FFD399;" d="M471.055,200.386L255,200.736l-212.794,0.34c-7.183-4.142-10.249-53.892-6.107-61.074l72.387-125.587
	C113.617,5.522,123.171,0,133.435,0h245.141c10.244,0,19.797,5.512,24.929,14.385l73.417,126.917
	C481.073,148.475,478.227,196.234,471.055,200.386z"/>
<path style="fill:#FFC477;" d="M471.055,200.386l-216.45,0.35L255,0h123.576c10.244,0,19.797,5.512,24.929,14.385l73.417,126.917
	C481.073,148.475,478.227,196.234,471.055,200.386z"/>
<polygon style="fill:#FFFCE5;" points="270.005,0 270.005,161.2 255,161.16 239.994,161.11 239.994,0 "/>
<polygon style="fill:#FFE89C;" points="270.005,0 270.005,161.2 255,161.16 255,0 "/>
<path style="fill:#FFC477;" d="M478.943,151.156v325.561c0,19.457-15.836,35.283-35.293,35.283H68.35
	c-5.932,0-11.534-1.471-16.446-4.072c-9.153-4.842-15.926-13.575-18.097-23.989c-0.49-2.331-0.75-4.752-0.75-7.223v-324.37
	c0-14.035,11.424-25.459,25.469-25.459h396.137c3.271,0,6.382,0.65,9.233,1.831C472.72,132.349,478.943,141.042,478.943,151.156z"/>
<path style="fill:#FFB655;" d="M478.943,151.156v325.561c0,19.457-15.836,35.283-35.293,35.283H255V126.887h199.664
	C468.049,126.887,478.943,137.771,478.943,151.156z"/>
<path style="fill:#B5B51F;" d="M324.145,295.405L255,364.54l-8.473,8.473c-2.921,2.931-6.763,4.402-10.604,4.402
	c-3.841,0-7.683-1.471-10.614-4.402l-36.374-36.374c-5.862-5.852-5.862-15.356,0-21.218c5.862-5.862,15.366-5.862,21.218,0
	l25.77,25.77l67.005-67.005c5.852-5.862,15.356-5.862,21.218,0C330.007,280.049,330.007,289.542,324.145,295.405z"/>
<path style="fill:#98981A;" d="M324.145,295.405L255,364.54v-42.426l47.928-47.928c5.852-5.862,15.356-5.862,21.218,0
	C330.007,280.049,330.007,289.542,324.145,295.405z"/>
<g>
</g>
<g>
</g>
<g>
</g>
<g>
</g>
<g>
</g>
<g>
</g>
<g>
</g>
<g>
</g>
<g>
</g>
<g>
</g>
<g>
</g>
<g>
</g>
<g>
</g>
<g>
</g>
<g>
</g>
</svg>
